<?xml version="1.0" encoding="utf-8"?>
<!-- Generator: Adobe Illustrator 16.0.3, SVG Export Plug-In . SVG Version: 6.00 Build 0)  -->
<!DOCTYPE svg PUBLIC "-//W3C//DTD SVG 1.1//EN" "http://www.w3.org/Graphics/SVG/1.1/DTD/svg11.dtd">
<svg version="1.1" id="Capa_1" xmlns="http://www.w3.org/2000/svg" xmlns:xlink="http://www.w3.org/1999/xlink" x="0px" y="0px"
	 width="487px" height="516px" viewBox="0 0 487 516" enable-background="new 0 0 487 516" xml:space="preserve">
<path fill-rule="evenodd" clip-rule="evenodd" fill="#FFFFFF" d="M279.319,78.974c-7.574-0.561-15.148-1.599-22.721-1.588
	c-17.781,0.024-34.655,4.458-50.864,11.625c-17.985,7.952-34.038,18.68-47.771,32.832c-0.975,1.006-2.754,1.232-4.16,1.82
	c-0.497-1.298-1.348-2.574-1.438-3.899c-1.399-20.443-2.701-40.892-4.02-61.339c-0.324-5.015-0.594-10.034-0.949-15.047
	c-0.351-4.945,1.768-8.435,6.221-10.422c5.584-2.493,11.14-5.103,16.884-7.173c8.567-3.087,17.233-5.929,25.961-8.525
	c6.358-1.891,8.084-0.3,8.296,6.359c0.103,3.249,0.378,6.511,0.867,9.723c0.456,2.995,2.051,5.132,5.506,4.704
	c3.625-0.448,7.213-1.23,10.846-1.574c10.528-0.995,21.071-1.841,31.609-2.746c3.205,0.359,6.709-0.12,6.965-3.713
	c0.42-5.909-0.255-11.896-0.469-17.851c11.445-1.307,22.405,1.261,33.25,4.37c5.852,1.677,11.587,3.776,17.337,5.792
	c3.875,1.359,5.25,4.486,5.302,8.319c0.064,4.764-0.039,9.531,0.059,14.294c0.145,7.04,2.469,10.55,9.188,11.994
	c7.667,1.647,13.946,5.832,20.483,9.66c1.003,0.587,2.07,1.063,4.087,2.089c0-5.656,0-10.489,0-15.324
	c0.158,3.365,0.836,6.805,0.365,10.08c-0.858,5.967,2.779,8.649,7.455,11.867c0-10.117,0-19.565,0-29.014
	c7.288,4.934,15.049,9.308,21.747,14.942c8.52,7.166,16.36,15.176,24.172,23.138c15.611,15.912,28.427,33.925,38.818,53.616
	c4.761,9.022,9.027,18.311,13.332,27.565c0.655,1.41,0.297,3.291,0.408,4.954c-1.603-0.206-3.318-0.112-4.788-0.667
	c-10.43-3.929-17.874-12.158-26.61-18.551c-14.223-10.409-30.166-16.445-47.868-17.511c-8.579-12.623-19.547-22.888-31.801-31.81
	C325.447,87.717,303.829,79.176,279.319,78.974z"/>
<path fill-rule="evenodd" clip-rule="evenodd" fill="#FFFFFF" d="M157.481,215.48c8.406,15.822,16.892,31.602,25.188,47.481
	c4.841,9.267,9.28,18.745,14.136,28.003c0.978,1.864,3.024,3.168,4.578,4.731c0.113,1.046,0.226,2.093,0.34,3.141
	c0.361,0.255,0.723,0.51,1.085,0.764c1.262-1.418,2.859-2.656,3.734-4.282c8.67-16.129,17.077-32.401,25.849-48.475
	c8.761-16.052,15.802-33.132,27.819-47.278c0.202-0.237,0.044-0.78,0.054-1.18c6.296-5.168,19.903-4.688,25.885,1.803
	c4.25,4.612,7.707,10.136,10.696,15.696c13.12,24.411,25.908,49.001,38.954,73.451c0.756,1.416,2.73,2.179,4.137,3.246
	c0.232,5.144,0.724,10.166,6.119,13.306c0.812-1.579,1.46-2.76,2.036-3.976c7.915-16.696,15.752-33.428,23.748-50.085
	c7.114-14.819,14.4-29.555,21.611-44.329c12.919-0.812,21.421,9.748,17.039,21.804c-3.617,9.95-7.918,19.662-12.177,29.365
	c-12.129,27.638-24.341,55.24-36.658,82.794c-1.755,3.926-3.965,7.735-6.512,11.195c-2.813,3.817-7.099,4.731-11.705,4.131
	c-4.248-5.568-9.274-10.711-12.604-16.783c-12.08-22.03-23.589-44.372-35.317-66.595c-6.085-11.527-12.134-23.074-18.344-34.534
	c-0.585-1.078-2.169-2.124-3.348-2.192c-0.767-0.045-1.767,1.626-2.418,2.681c-0.398,0.645-0.334,1.576-0.477,2.379
	c-1.53,1.505-3.531,2.752-4.519,4.554c-13.905,25.358-27.701,50.774-41.455,76.213c-4.705,8.7-8.844,17.729-13.943,26.184
	c-3.632,6.021-8.237,7.049-15.17,5.117c-2.224-3.975-4.528-7.905-6.657-11.93c-16.618-31.42-33.146-62.89-49.835-94.271
	c-4.639-8.724-5.465-9.146,4.078-12.637c0.887-0.324,1.705-0.832,2.561-1.244C153.631,230.045,158.307,224.496,157.481,215.48z"/>
<path fill-rule="evenodd" clip-rule="evenodd" fill="#FFFFFF" d="M64.871,96.807c7.323-5.377,13.916-3.889,20.688,4.136
	c7.526,8.919,15.227,17.701,23.111,26.304c6.752,7.369,7.515,10.859,2.404,19.443c-11.347,19.052-19.915,39.194-25.201,60.779
	c-4.839,19.76-5.516,39.819-4.471,59.924c0.519,9.961,2.797,19.826,4.169,29.75c0.16,1.152-0.384,2.401-0.603,3.606
	c-3.843-1.996-7.729-3.912-11.52-6c-29.011-15.973-45.011-40.182-46.186-73.583c-0.54-15.346,2.309-30.318,6.096-45.086
	c6.941-27.071,18.638-52.029,34.154-75.229C69.275,98.215,68.71,97.349,64.871,96.807z"/>
<path fill-rule="evenodd" clip-rule="evenodd" fill="#FFFFFF" d="M452.608,194.047c1.993-1.605,3.869-3.395,6.007-4.774
	c3.438-2.218,5.317-1.771,6.4,2.161c3.387,12.276,7.053,24.53,9.42,37.02c3.896,20.563,6.037,41.397,5.039,62.375
	c-1.535,32.226-7.2,63.614-20.563,93.244c-2.06,4.568-4.665,8.923-7.377,13.146c-0.775,1.207-2.812,1.604-4.271,2.372
	c-0.802-1.224-1.509-2.523-2.418-3.661c-6.463-8.08-12.838-16.236-19.514-24.138c-3.487-4.127-3.954-7.989-1.896-13.054
	c10.097-24.845,14.952-50.787,14.891-77.583c-0.041-18.292-2.348-36.361-7.079-54.042c-2.191-8.187-0.034-14.292,6.855-19.131
	c4.441-3.119,8.638-6.605,12.764-10.14C451.826,197.019,452.047,195.335,452.608,194.047z"/>
<path fill-rule="evenodd" clip-rule="evenodd" fill="#FFFFFF" d="M277.265,450.622c9.457-0.642,18.921-1.199,28.367-1.976
	c2.932-0.24,5.814-1.072,8.719-1.633c2.146-0.086,4.353,0.121,6.43-0.304c21.112-4.319,40.242-13.085,57.451-26.024
	c2.574-1.936,4.888-4.216,7.322-6.337c6.076,0.454,9.255,3.028,10.632,8.761c2.732,11.374,3.055,22.821,0.624,34.277
	c-1.311,6.179-4.942,10.866-10.338,14.04c-19.772,11.634-40.357,21.539-62.878,26.47c-10.812,2.368-21.93,3.397-32.946,4.728
	c-6.856,0.828-13.789,1.563-20.675,1.472c-7.839-0.104-15.665-1.176-23.498-1.827c-1.072-0.09-2.261-0.53-3.198-0.214
	c-2.828,0.953-4.988,0.417-6.866-1.952c-0.504-0.636-1.674-0.744-2.541-1.093c1.958-1.243,3.879-2.553,5.885-3.716
	c5.731-3.322,11.702-6.28,17.205-9.942c8.712-5.8,16.17-12.939,19.143-23.399C277.125,458.355,276.913,454.409,277.265,450.622z"/>
<path fill-rule="evenodd" clip-rule="evenodd" fill="#FFFFFF" d="M152.539,403.635c3.113,1.489,6.647,2.452,9.27,4.553
	c14.022,11.228,29.715,19.462,46.248,26.128c19.323,7.789,39.365,12.811,60.2,14.474c2.107,0.168,4.15,1.13,6.222,1.722
	c-7.195,25.556-33.021,46.228-52.481,41.796c0-6.304,0.116-12.659-0.03-19.008c-0.172-7.431-2.557-8.805-9.514-5.743
	c-6.591-1.41-13.232-2.623-19.757-4.29c-5.65-1.441-6.67-1.011-7.729,4.607c-0.476,2.526-0.716,5.193-1.749,7.489
	c-0.786,1.747-2.653,3.01-4.039,4.487c-5.823-3.156-11.703-6.209-17.45-9.494c-6.938-3.966-13.865-7.971-20.602-12.264
	c-4.274-2.723-4.343-4.407-1.887-8.774c1.79-3.181,3.984-6.329,4.876-9.782C147.19,427.638,149.771,415.611,152.539,403.635z"/>
<path fill-rule="evenodd" clip-rule="evenodd" fill="#FFFFFF" d="M55.721,363.836c2.997-1.701,5.973-3.438,8.996-5.092
	c2.881-1.579,5.808-3.071,8.715-4.602c1.735-0.205,3.684,0.002,5.139-0.748c1.128-0.581,2.552-2.61,2.288-3.567
	c-3.36-12.182-8.738-22.601-24.255-23.299c-13.658-0.614-21.249-6.521-24.166-18.412c-1.998-8.146-2.992-16.54-4.365-24.835
	c-0.112-0.682,0.319-1.453,0.706-3.029c9.572,5.686,18.37,11.796,27.915,16.337c9.608,4.57,19.959,7.578,29.985,11.271
	c2.34,4.875,4.769,9.71,7.005,14.634c9.222,20.292,20.622,39.196,35.417,55.958c5.047,5.718,5.125,5.812-0.328,10.723
	c-9.891,8.912-19.851,17.748-29.882,26.502c-1.699,1.484-3.895,2.398-5.862,3.575c-6.187-8.384-12.685-16.561-18.48-25.206
	C67.946,384.194,61.97,373.924,55.721,363.836z"/>
<path fill-rule="evenodd" clip-rule="evenodd" fill="#FFFFFF" d="M86.679,307.86c-10.026-3.693-20.376-6.701-29.985-11.271
	c-9.545-4.541-18.343-10.651-27.915-16.337c-0.387,1.576-0.818,2.347-0.706,3.029c1.373,8.295,2.367,16.688,4.365,24.835
	c2.917,11.892,10.507,17.798,24.166,18.412c15.517,0.698,20.895,11.117,24.255,23.299c0.264,0.957-1.16,2.986-2.288,3.567
	c-1.455,0.75-3.404,0.543-5.139,0.748c-4.826-10.813-13.061-16.943-24.811-18.784c-5.068-0.795-10.068-2.32-14.945-3.969
	c-7.437-2.517-12.813-7.638-14.476-15.322c-3.099-14.323-6.5-28.686-8.061-43.216c-5.238-48.786,3.054-95.358,25.262-139.225
	c4.341-8.575,9.208-17.008,14.879-24.738c3.506-4.778,8.991-8.104,13.588-12.081c3.84,0.541,4.405,1.407,2.642,4.044
	c-15.517,23.2-27.213,48.158-34.154,75.229c-3.787,14.768-6.635,29.74-6.096,45.086c1.175,33.402,17.175,57.611,46.186,73.583
	c3.792,2.088,7.677,4.004,11.52,6C85.539,303.121,86.108,305.49,86.679,307.86z"/>
<path fill-rule="evenodd" clip-rule="evenodd" fill="#FFFFFF" d="M157.481,215.48c0.825,9.016-3.85,14.565-11.494,18.246
	c-0.856,0.413-1.674,0.92-2.561,1.244c-9.543,3.491-8.717,3.913-4.078,12.637c16.69,31.381,33.217,62.851,49.835,94.271
	c2.129,4.024,4.434,7.955,6.657,11.93c-1.632,0.038-3.271,0.003-4.896,0.13c-6.135,0.479-10.372-2.174-13.27-7.529
	c-11.097-20.51-22.294-40.966-33.426-61.457c-12.362-22.752-24.693-45.521-37.037-68.283c-6.213-11.456-5.564-14.966,4.321-23.381
	c0.571,1.093,1.405,2.126,1.675,3.29c3.109,13.443,10.823,22.973,23.817,27.886c5.792,2.189,9.853,0.195,11.884-5.64
	c0.885-2.542,1.256-5.263,1.86-7.903C153.866,211.176,156.783,211.695,157.481,215.48z"/>
<path fill-rule="evenodd" clip-rule="evenodd" fill="#FFFFFF" d="M452.608,194.047c-0.562,1.288-0.782,2.972-1.741,3.794
	c-4.126,3.534-8.322,7.021-12.764,10.14c-6.89,4.839-9.047,10.944-6.855,19.131c4.731,17.681,7.038,35.751,7.079,54.042
	c0.062,26.797-4.794,52.739-14.891,77.583c-2.059,5.064-1.592,8.927,1.896,13.054c6.676,7.901,13.051,16.058,19.514,24.138
	c0.909,1.138,1.616,2.438,2.418,3.661c-3.17,2.832-6.709,2.829-9.545,0.048c-7.73-7.581-15.854-14.927-22.506-23.399
	c-6.861-8.739-4.94-19.112-1.405-28.83c4.657-12.8,8.149-25.836,9.712-39.379c2.691-23.334,1.009-46.454-4.096-69.275
	c-2.996-13.394,0.323-22.588,11.851-29.989c4.206-2.7,7.908-6.176,12.007-9.061C446.247,197.616,449.489,195.919,452.608,194.047z"
	/>
<path fill-rule="evenodd" clip-rule="evenodd" fill="#FFFFFF" d="M270.928,241.741c0.143-0.803,0.079-1.734,0.477-2.379
	c0.651-1.054,1.651-2.726,2.418-2.681c1.179,0.068,2.763,1.114,3.348,2.192c6.209,11.46,12.259,23.007,18.344,34.534
	c11.729,22.223,23.237,44.565,35.317,66.595c3.33,6.072,8.356,11.215,12.604,16.783c-11.139,0.972-19.957-2.425-25.484-12.84
	c-12.146-22.886-24.994-45.419-36.461-68.636c-4.668-9.452-6.498-20.306-9.619-30.521
	C271.561,243.771,271.243,242.756,270.928,241.741z"/>
<path fill-rule="evenodd" clip-rule="evenodd" fill="#FFFFFF" d="M393.449,207.497c-7.211,14.773-14.497,29.509-21.611,44.329
	c-7.996,16.657-15.833,33.39-23.748,50.085c-0.576,1.216-1.225,2.397-2.036,3.976c-5.396-3.14-5.887-8.162-6.119-13.306
	c0.677-9.843,6.539-17.638,10.459-26.177c6.657-14.493,13.704-28.807,20.39-43.289C375.297,213.335,382.547,207.848,393.449,207.497
	z"/>
<path fill-rule="evenodd" clip-rule="evenodd" fill="#FFFFFF" d="M150.769,210.921c-0.604,2.64-0.976,5.36-1.86,7.903
	c-2.031,5.834-6.092,7.829-11.884,5.64c-12.994-4.913-20.708-14.443-23.817-27.886c-0.27-1.163-1.104-2.196-1.675-3.29
	c3.654-2.669,6.943-6.417,11.031-7.795c10.945-3.691,23.392,4.104,26.491,15.884C149.875,204.493,150.21,207.736,150.769,210.921z"
	/>
<path fill-rule="evenodd" clip-rule="evenodd" fill="#FFFFFF" d="M260.263,198.385c-0.01,0.4,0.148,0.943-0.054,1.18
	c-12.017,14.146-19.058,31.226-27.819,47.278c-8.771,16.074-17.178,32.346-25.849,48.475c-0.875,1.626-2.472,2.864-3.734,4.282
	c-0.362-0.254-0.724-0.509-1.085-0.764c-0.114-1.047-0.227-2.094-0.34-3.141c1.058-15.95,8.05-29.674,15.975-43.098
	c7.934-13.441,15.651-27.008,23.467-40.52c3.447-5.958,8.128-10.547,14.713-12.882C257.022,198.67,258.683,198.642,260.263,198.385z
	"/>
<path fill-rule="evenodd" clip-rule="evenodd" fill="#FFFFFF" d="M413.356,429.715c4.022-1.018,7.995-2.39,12.081-2.968
	c5.643-0.798,15.077,2.017,18.192,12.573c2.648,8.982,0.411,19.217-9.934,22.771c-6.194,2.129-12.211,1.393-17.885-1.925
	c-0.425-1.967-0.482-4.11-1.339-5.866c-3.285-6.744-3.892-13.437-0.438-20.274c0.645-1.274,1.273-2.555,1.997-4.004
	C414.945,429.897,414.15,429.807,413.356,429.715z"/>
<path fill-rule="evenodd" clip-rule="evenodd" fill="#FFFFFF" d="M279.319,78.974c24.51,0.203,46.128,8.743,65.698,22.989
	c12.254,8.921,23.222,19.187,31.801,31.81c-8.274,1.923-15.292-0.786-20.616-6.872c-20.326-23.236-45.692-38.143-75.164-46.523
	C280.384,80.191,279.888,79.453,279.319,78.974z"/>
<path fill-rule="evenodd" clip-rule="evenodd" fill="#FFFFFF" d="M152.539,403.635c-2.768,11.977-5.348,24.003-8.421,35.9
	c-0.892,3.453-3.086,6.602-4.876,9.782c-2.457,4.367-2.387,6.052,1.887,8.774c6.737,4.293,13.663,8.298,20.602,12.264
	c5.748,3.285,11.627,6.338,17.45,9.494c0.033,3.588-2.75,3.971-5.239,4.238c-1.389,0.148-3.026-0.312-4.292-0.984
	c-13.03-6.923-26.016-13.93-38.993-20.953c-2.697-1.459-3.365-3.495-1.965-6.445c7.125-15.02,11.812-30.86,15.596-46.998
	C145.546,403.341,147.78,402.056,152.539,403.635z"/>
<path fill-rule="evenodd" clip-rule="evenodd" fill="#FFFFFF" d="M55.721,363.836c6.249,10.088,12.225,20.358,18.828,30.21
	c5.795,8.646,12.293,16.822,18.48,25.206c-5.539,6.235-8.161,6.63-13.371,0.276c-10.762-13.123-21.274-26.466-31.42-40.067
	C42.777,372.139,46.469,365.073,55.721,363.836z"/>
<path fill-rule="evenodd" clip-rule="evenodd" fill="#FFFFFF" d="M212.454,467.556c6.957-3.062,9.342-1.688,9.514,5.743
	c0.146,6.349,0.03,12.704,0.03,19.008c19.46,4.432,45.287-16.24,52.481-41.796c0.928,0.037,1.856,0.073,2.785,0.111
	c-0.351,3.787-0.139,7.733-1.161,11.33c-2.973,10.46-10.43,17.6-19.143,23.399c-5.502,3.662-11.473,6.62-17.205,9.942
	c-2.006,1.163-3.927,2.473-5.885,3.716c-4.845-0.176-9.729-0.032-14.525-0.619c-4.36-0.535-6.606-3.668-6.51-7.995
	c0.088-4.051,0.979-8.096,0.944-12.138C213.748,474.688,212.926,471.123,212.454,467.556z"/>
<path fill-rule="evenodd" clip-rule="evenodd" fill="#FFFFFF" d="M385.554,414.349c-2.435,2.121-4.748,4.401-7.322,6.337
	c-17.209,12.939-36.339,21.705-57.451,26.024c-2.077,0.425-4.283,0.218-6.43,0.304c1.499-0.654,2.941-1.567,4.508-1.923
	c16.433-3.723,30.099-12.582,42.989-22.925c2.329-1.868,4.641-3.773,7.089-5.477C374.051,413.126,379.617,412.313,385.554,414.349z"
	/>
<path fill-rule="evenodd" clip-rule="evenodd" fill="#FFFFFF" d="M413.356,429.715c0.794,0.092,1.589,0.183,2.675,0.308
	c-0.724,1.449-1.353,2.729-1.997,4.004c-3.453,6.838-2.847,13.53,0.438,20.274c0.856,1.756,0.914,3.899,1.339,5.866
	c-13.052-4.662-12.729-18.769-7.385-27.354C409.349,431.33,411.678,430.726,413.356,429.715z"/>
<path fill-rule="evenodd" clip-rule="evenodd" fill="#FFFFFF" d="M357.607,46.285c0,9.448,0,18.897,0,29.014
	c-4.676-3.218-8.313-5.9-7.455-11.867c0.471-3.275-0.207-6.715-0.365-10.08C350.442,46.722,351.906,45.398,357.607,46.285z"/>
<path fill-rule="evenodd" clip-rule="evenodd" fill="#FFFFFF" d="M260.082,12.159c0.213,5.955,0.889,11.942,0.469,17.851
	c-0.256,3.593-3.761,4.073-6.965,3.713c-0.166-4.568-0.387-9.134-0.485-13.704C252.969,13.921,254.083,12.715,260.082,12.159z"/>
</svg>
