<?xml version="1.0" encoding="utf-8"?>
<!-- Generator: Adobe Illustrator 16.0.3, SVG Export Plug-In . SVG Version: 6.00 Build 0)  -->
<!DOCTYPE svg PUBLIC "-//W3C//DTD SVG 1.1//EN" "http://www.w3.org/Graphics/SVG/1.1/DTD/svg11.dtd">
<svg version="1.1" xmlns="http://www.w3.org/2000/svg" xmlns:xlink="http://www.w3.org/1999/xlink" x="0px" y="0px"
	 width="595.28px" height="841.89px" viewBox="0 0 595.28 841.89" enable-background="new 0 0 595.28 841.89" xml:space="preserve">
<g id="Capa_2">
</g>
<g id="Capa_1">
	<path fill-rule="evenodd" clip-rule="evenodd" fill="#C8C6F7" d="M342.762,154.185c-27.303-4.664-52.725,1.094-76.827,13.966
		c-13.143,7.019-24.923,15.859-35.169,26.719c-1.369,1.452-2.631,3.647-5.239,2.553c-1.66-0.695-1.246-2.37-1.245-3.693
		c0.028-24.435-2.423-48.723-4.499-73.024c-0.497-5.812,1.63-8.976,6.699-11.542c12.548-6.354,25.803-10.664,39.143-14.877
		c5.455-1.724,7.708-0.605,7.938,5.479c0.621,16.419,0.873,16.687,16.542,13.072c9.491-2.189,19.019-2.482,28.628-2.565
		c5.419,0.402,7.658-1.843,7.051-7.472c-0.475-4.413-0.08-8.919-0.07-13.385c11.832-1.155,23.057,2.027,34.146,5.292
		c17.904,5.271,18.227,5.526,17.664,23.784c-0.246,7.964,0.729,13.221,9.893,14.844c8.157,1.445,14.32,7.695,21.729,11.118
		c1.974,1.799,3.948,3.601,6.796,6.198c0-10.27,0-19.426,0-28.584c17.136,9.833,30.838,23.723,43.943,38.115
		c20.399,22.403,35.584,48.17,46.917,76.227c0.915,2.263,3.694,5.127,1.165,6.868c-1.65,1.137-4.764-1.075-7.264-2.276
		c-12.476-5.994-20.246-18.2-32.982-23.909c-10.74-4.815-21.27-9.664-33.332-9.577c-4.263-5.252-8.119-10.906-12.855-15.689
		C399.818,169.895,374.637,154.969,342.762,154.185z"/>
	<path fill-rule="evenodd" clip-rule="evenodd" fill="#AF9EFE" d="M335.525,311.878c-4.122,1.768-5.116,6.002-6.926,9.373
		c-9.957,18.542-18.954,37.638-29.637,55.743c-7.046,11.942-10.772,25.344-18.215,36.981c-3.588,5.609-8.048,9.131-15.17,6.763
		c-1.871-2.936-4.064-5.713-5.55-8.828c-15.769-33.072-32.448-65.682-49.805-97.942c-2.517-4.678-1.158-5.764,3.196-7.542
		c9.216-3.762,17.499-8.82,15.574-21.079c7.697,15.148,15.469,30.262,23.068,45.462c4.903,9.807,9.541,19.746,14.329,29.612
		c0.899,1.852,1.557,4.017,4.154,4.237c0.055,0.878,0.109,1.759,0.165,2.641c-0.193,0.114-0.414,0.2-0.567,0.353
		c-0.065,0.066,0.01,0.273,0.021,0.415c0.141-0.287,0.281-0.573,0.422-0.86c2.967,0.883,3.507-1.528,4.425-3.324
		c8.399-16.453,16.511-33.06,25.235-49.338c8.343-15.566,14.762-32.297,26.796-45.71c12.4-4.809,22.371-1.215,28.642,10.916
		c13.068,25.273,25.874,50.683,38.825,76.017c1.224,2.392,1.64,5.629,5.309,5.846c0.262,4.656,0.619,9.271,5.515,12.479
		c15.478-31.619,28.252-64.335,44.465-95.428c11.852-0.201,19.529,9.706,15.892,21.135c-5.073,15.922-12.761,30.794-19.571,45.992
		c-9.518,21.229-18.281,42.744-26.788,64.383c-2.788,7.093-6.141,14.095-15.771,13.419c-9.05-6.184-12.494-16.186-17.181-25.317
		c-14.885-29.006-29.684-58.056-44.584-87.054c-0.891-1.733-1.349-4.655-4.029-4.125
		C335.691,307.505,335.914,310.08,335.525,311.878z"/>
	<path fill-rule="evenodd" clip-rule="evenodd" fill="#C8C6F7" d="M143.285,171.209c3.973-4.188,11.139-4.087,15.966,1.266
		c8.949,9.926,17.068,20.601,26.05,30.493c5.184,5.708,4.822,10.112,0.971,16.686c-15.707,26.814-25.386,55.624-27.826,86.909
		c-1.586,20.343-0.064,40.25,4.06,60.092c0.253,1.217,0.361,2.305-0.734,3.166c-4.256-2.447-8.559-4.824-12.767-7.358
		c-20.659-12.439-34.487-29.556-39.414-53.867c-3.998-19.737-1.173-38.743,3.153-57.778c5.983-26.329,17.229-50.496,30.967-73.602
		C144.792,175.401,148.995,172.776,143.285,171.209z"/>
	<path fill-rule="evenodd" clip-rule="evenodd" fill="#C8C6F7" d="M505.898,265.429c0.767-0.886,1.449-1.866,2.313-2.644
		c5.028-4.533,7.182-4.006,9.165,2.593c4.388,14.613,7.523,29.555,9.573,44.632c2.306,16.956,3.712,34.079,2.896,51.212
		c-1.402,29.459-6.541,58.235-17.724,85.679c-2.27,5.566-5.504,10.742-8.329,16.078c-0.756,1.427-1.487,3.101-3.636,1.792
		c-7.944-9.243-15.228-18.992-22.45-28.801c-2.103-2.854-2.2-5.193-0.962-8.367c16.637-42.642,18.763-86.348,7.884-130.513
		c-2.108-8.557,0.216-12.704,6.16-17.551C496.1,275.211,502.513,271.878,505.898,265.429z"/>
	<path fill-rule="evenodd" clip-rule="evenodd" fill="#C8C6F7" d="M341.678,514.575c9.941-0.737,19.882-1.475,29.824-2.21
		c27.186-3.545,50.68-15.065,71.207-32.982c5.198,0.234,8.383,3.45,9.413,7.99c2.457,10.814,2.765,21.747,0.867,32.796
		c-1.139,6.632-4.77,11.296-10.054,14.569c-25.969,16.077-53.549,27.676-84.459,30.057c-15.93,1.229-31.814,2.716-47.669-0.419
		c-0.681,0.052-1.438-0.049-2.065,0.192c-3.292,1.263-5.211-1.155-6.012-3.249c-1.047-2.738,2.311-2.902,3.902-3.878
		c3.739-2.288,7.773-4.109,11.446-6.493C331.322,542.354,341.606,531.752,341.678,514.575z"/>
	<path fill-rule="evenodd" clip-rule="evenodd" fill="#C8C6F7" d="M224.665,468.456c6.33,1.66,10.391,6.808,15.481,10.319
		c27.943,19.275,58.698,30.661,92.442,34.067c2.088,0.211,4.231,0.183,6.021,1.548c-3.93,22.192-24.729,40.479-46.802,41.39
		c-3.009,0.124-2.641-1.011-2.54-3.167c0.274-5.844,0.455-11.722,0.167-17.561c-0.271-5.521-3.156-6.657-8.936-3.99
		c-6.93,0.041-13.254-2.732-19.735-4.557c-4.148-1.165-5.051-0.368-5.733,3.761c-0.773,4.686-0.869,9.896-4.775,13.595
		c-11.776-7.532-24.45-13.562-35.918-21.628c-3.337-2.349-5.03-4.301-2.478-8.412C220.459,499.96,222.248,484.102,224.665,468.456z"
		/>
	<path fill-rule="evenodd" clip-rule="evenodd" fill="#C8C6F7" d="M133.668,429.994c4.638-5.057,12.629-3.619,17.168-8.867
		c7.678-0.927,8.107-1.644,5.691-8.464c-3.563-10.051-8.181-17.526-21.015-18.22c-8.721-0.471-18.225-3.962-21.859-14.05
		c-3.111-8.638-3.501-17.877-5.102-26.844c-0.577-3.241-0.099-4.853,4.072-2.613c8.442,4.541,15.052,12.015,24.404,14.991
		c9.01,2.866,17.067,8.279,26.538,9.908c10.368,25.76,22.902,50.263,41.374,71.325c1.428,1.629,2.907,3.385,0.568,5.392
		c-12.237,10.492-22.864,22.804-36.211,32.043c-0.659-1.213-1.198-2.514-1.998-3.625
		C155.409,464.426,142.171,448.772,133.668,429.994z"/>
	<path fill-rule="evenodd" clip-rule="evenodd" fill="#141C25" d="M163.566,375.835c-9.471-1.628-17.528-7.042-26.538-9.908
		c-9.352-2.977-15.962-10.451-24.404-14.991c-4.171-2.24-4.649-0.628-4.072,2.613c1.601,8.967,1.991,18.207,5.102,26.844
		c3.634,10.088,13.138,13.579,21.859,14.05c12.834,0.693,17.452,8.169,21.015,18.22c2.416,6.82,1.987,7.537-5.691,8.464
		c-4.317-9.107-9.258-15.296-21.068-17.746c-25.725-5.342-28.538-9.158-33.437-35.094c-11.507-60.902-3.658-119.139,26.392-173.783
		c5.028-9.143,10.855-18.045,20.559-23.289c5.713,1.562,1.51,4.187,0.43,6c-13.738,23.106-24.984,47.273-30.967,73.602
		c-4.327,19.036-7.151,38.042-3.153,57.778c4.926,24.311,18.754,41.428,39.414,53.867c4.208,2.534,8.51,4.911,12.767,7.358
		C162.724,371.718,163.942,373.538,163.566,375.835z"/>
	<path fill-rule="evenodd" clip-rule="evenodd" fill="#141C25" d="M505.898,265.429c-3.386,6.449-9.799,9.782-15.109,14.111
		c-5.944,4.847-8.269,8.994-6.16,17.551c10.879,44.165,8.753,87.871-7.884,130.513c-1.238,3.174-1.141,5.514,0.962,8.367
		c7.223,9.809,14.506,19.558,22.45,28.801c-4.393,4.894-8.514,1.222-11.601-1.243c-4.353-3.477-7.467-8.456-11.606-12.252
		c-12.502-11.457-13.559-22.865-7.493-39.614c11.346-31.33,11.191-64.583,5.44-97.535c-0.241-1.388-0.389-2.807-0.783-4.151
		c-3.883-13.237-0.193-23.396,11.852-30.561C492.941,275.266,497.538,267.662,505.898,265.429z"/>
	<path fill-rule="evenodd" clip-rule="evenodd" fill="#141C25" d="M228.993,285.346c1.925,12.259-6.358,17.317-15.574,21.079
		c-4.354,1.777-5.713,2.863-3.196,7.542c17.357,32.26,34.036,64.87,49.805,97.942c1.486,3.115,3.68,5.893,5.55,8.828
		c-12.082,0.838-13.947-0.287-19.407-10.755c-21.587-41.388-43.247-82.738-64.845-124.122c-4.88-9.352-3.284-14.695,6.217-21.584
		c1.741,13.764,8.331,24.335,21.043,30.284c7.159,3.35,11.457,0.797,13.369-6.985c0.444-1.806,0.497-3.707,0.73-5.565
		C225.169,282.399,228.011,282.114,228.993,285.346z"/>
	<path fill-rule="evenodd" clip-rule="evenodd" fill="#141C25" d="M335.525,311.878c0.389-1.798,0.166-4.373,2.236-4.782
		c2.681-0.531,3.139,2.391,4.029,4.125c14.9,28.998,29.699,58.048,44.584,87.054c4.687,9.132,8.131,19.134,17.181,25.317
		c-14.452,0.709-19.515-2.509-26.067-15.482c-10.055-19.905-20.177-39.781-30.684-59.448
		C340.605,337.061,337.536,324.674,335.525,311.878z"/>
	<path fill-rule="evenodd" clip-rule="evenodd" fill="#141C25" d="M449.795,278.663c-16.213,31.093-28.987,63.81-44.465,95.428
		c-4.896-3.208-5.253-7.823-5.515-12.479c-0.18-3.832,0.783-7.291,2.448-10.818c8.823-18.69,17.816-37.32,25.893-56.336
		C432.435,284.386,439.113,279.182,449.795,278.663z"/>
	<path fill-rule="evenodd" clip-rule="evenodd" fill="#AF9EFE" d="M222.686,282.009c-0.233,1.858-0.286,3.76-0.73,5.565
		c-1.913,7.782-6.21,10.335-13.369,6.985c-12.712-5.949-19.302-16.521-21.043-30.284c4.472-5.612,9.777-8.758,17.4-7.193
		c8.424,1.73,13.532,6.707,16.121,14.633C222.153,275.052,222.784,278.478,222.686,282.009z"/>
	<path fill-rule="evenodd" clip-rule="evenodd" fill="#141C25" d="M270.708,367.298c-0.055-0.881-0.109-1.762-0.164-2.641
		c0.312-21.753,13.49-38.432,22.564-56.69c4.256-8.566,9.532-16.619,14.151-25.012c4.365-7.932,10.988-12.496,19.78-14.122
		c-12.034,13.413-18.453,30.144-26.796,45.71c-8.724,16.278-16.835,32.885-25.235,49.338c-0.917,1.796-1.458,4.208-4.425,3.324
		L270.708,367.298z"/>
	<path fill-rule="evenodd" clip-rule="evenodd" fill="#141C25" d="M342.762,154.185c31.875,0.784,57.057,15.71,78.771,37.64
		c4.736,4.784,8.593,10.437,12.855,15.689c-8.883,1.646-15.223-1.358-21.252-8.497c-18.159-21.499-41.56-35.292-68.42-43.335
		C343.809,155.411,342.898,155.366,342.762,154.185z"/>
	<path fill-rule="evenodd" clip-rule="evenodd" fill="#C8C6F7" d="M471.107,494.131c8.665-4.652,16.984-3.277,22.427,3.704
		c5.427,6.963,5.183,17.509-0.56,24.064c-4.712,5.382-15.272,6.461-21.75,2.225c-0.416-1.539-0.532-3.25-1.296-4.59
		C464.937,510.779,465.511,502.358,471.107,494.131z"/>
	<path fill-rule="evenodd" clip-rule="evenodd" fill="#141C25" d="M224.665,468.456c-2.417,15.646-4.205,31.505-12.805,45.365
		c-2.553,4.111-0.86,6.063,2.478,8.412c11.468,8.066,24.142,14.096,35.918,21.628c-3.063,4.186-6.511,3.987-10.907,1.754
		c-12.076-6.132-24.043-12.384-35.321-19.95c-2.966-1.988-2.794-3.555-1.584-6.238c6.71-14.861,11.19-30.429,14.667-46.334
		C217.911,469.431,220.399,467.152,224.665,468.456z"/>
	<path fill-rule="evenodd" clip-rule="evenodd" fill="#141C25" d="M133.668,429.994c8.503,18.778,21.741,34.433,33.631,50.976
		c0.8,1.111,1.339,2.412,1.998,3.625c-6.143,5.678-7.454,5.751-13.015-0.405c-10.889-12.052-20.629-25.001-29.248-38.765
		C122.683,438.471,125.018,433.303,133.668,429.994z"/>
	<path fill-rule="evenodd" clip-rule="evenodd" fill="#141C25" d="M291.449,561.93c-9.155-1.113-11.329-4.065-10.456-13.467
		c0.538-5.791,2.704-11.692-0.494-17.401c5.78-2.667,8.664-1.53,8.936,3.99c0.288,5.839,0.107,11.717-0.167,17.561
		c-0.101,2.156-0.469,3.291,2.54,3.167c22.072-0.91,42.872-19.197,46.802-41.39c1.019,0.061,2.039,0.12,3.063,0.182
		c-0.065,17.181-10.35,27.782-23.593,36.376c-3.673,2.384-7.707,4.205-11.446,6.493c-1.592,0.976-4.949,1.14-3.902,3.878"/>
	<path fill-rule="evenodd" clip-rule="evenodd" fill="#141C25" d="M442.709,479.382c-20.527,17.917-44.021,29.438-71.207,32.982
		c8.304-4.067,17.657-5.29,25.862-9.688c9.943-5.331,18.648-12.364,27.226-19.546C430.086,478.529,435.881,476.827,442.709,479.382z
		"/>
	<path fill-rule="evenodd" clip-rule="evenodd" fill="#141C25" d="M471.107,494.131c-5.597,8.227-6.171,16.647-1.179,25.403
		c0.764,1.34,0.88,3.051,1.296,4.59c-13.28-4.32-12.46-18.56-7.883-26.859C464.84,494.547,468.038,494.008,471.107,494.131z"/>
	<path fill-rule="evenodd" clip-rule="evenodd" fill="#141C25" d="M415.941,122.066c0,9.158,0,18.314,0,28.584
		c-2.848-2.597-4.822-4.398-6.796-6.198c-0.05-5.15,0.078-10.312-0.199-15.453C408.67,123.854,410.861,121.609,415.941,122.066z"/>
	<path fill-rule="evenodd" clip-rule="evenodd" fill="#141C25" d="M325.713,89.415c-0.01,4.466-0.404,8.972,0.07,13.385
		c0.607,5.629-1.632,7.874-7.051,7.472c-0.048-4.47,0.162-8.961-0.209-13.403C318.066,91.394,320.295,88.986,325.713,89.415z"/>
	<rect x="60" y="227.224" display="none" fill-rule="evenodd" clip-rule="evenodd" fill="#FFEDDA" width="444" height="402.667"/>
	<path fill-rule="evenodd" clip-rule="evenodd" fill="#141C25" d="M270.584,367.206c-0.141,0.287-0.281,0.573-0.422,0.86
		c-0.012-0.142-0.087-0.349-0.021-0.415c0.153-0.153,0.375-0.239,0.567-0.353C270.708,367.298,270.584,367.206,270.584,367.206z"/>
</g>
</svg>
